<svg xmlns="http://www.w3.org/2000/svg" xmlns:xlink="http://www.w3.org/1999/xlink" width="1080" zoomAndPan="magnify" viewBox="0 0 810 809.999993" height="1080" preserveAspectRatio="xMidYMid meet" version="1.0"><defs><clipPath id="941f488b03"><path d="M 149 599 L 208 599 L 208 654.394531 L 149 654.394531 Z M 149 599 " clip-rule="nonzero"/></clipPath><clipPath id="b52ba632f8"><path d="M 233 615 L 300 615 L 300 654.394531 L 233 654.394531 Z M 233 615 " clip-rule="nonzero"/></clipPath><clipPath id="d1f3f75a7f"><path d="M 435 155.644531 L 536 155.644531 L 536 256 L 435 256 Z M 435 155.644531 " clip-rule="nonzero"/></clipPath><clipPath id="2912fc7e78"><path d="M 325 615 L 392 615 L 392 654.394531 L 325 654.394531 Z M 325 615 " clip-rule="nonzero"/></clipPath></defs><path fill="#9d4489" d="M 771.457031 378.769531 C 771.457031 371.539062 765.5625 365.644531 758.339844 365.644531 L 718.988281 365.644531 C 711.761719 365.644531 705.867188 371.539062 705.867188 378.769531 L 705.867188 615.019531 C 705.867188 622.25 711.761719 628.144531 718.988281 628.144531 L 758.339844 628.144531 C 765.5625 628.144531 771.457031 622.25 771.457031 615.019531 L 771.457031 378.769531 " fill-opacity="1" fill-rule="nonzero"/><g clip-path="url(#941f488b03)"><path fill="#9d4489" d="M 149.296875 642.242188 C 155.394531 649.78125 164.617188 654.394531 174.609375 654.394531 C 192.699219 654.394531 207.402344 639.679688 207.402344 621.582031 L 207.402344 609.226562 C 201.820312 606.714844 196.796875 603.277344 192.132812 599.382812 L 149.296875 642.242188 " fill-opacity="1" fill-rule="nonzero"/></g><path fill="#9d4489" d="M 410.570312 594.101562 C 414.3125 595.84375 417.847656 597.945312 421.074219 600.613281 C 433.21875 610.96875 462.222656 628.144531 522.222656 628.144531 C 590.21875 628.144531 627.625 613.378906 640.539062 607.074219 C 647.96875 603.585938 655.5 601.894531 663.238281 601.894531 L 679.632812 601.894531 L 679.632812 390.816406 C 630.648438 384.359375 547.589844 345.445312 485.332031 306.019531 L 307.679688 483.769531 L 404.167969 483.769531 C 439.625 483.769531 463.707031 472.132812 463.914062 472.027344 C 470.421875 468.796875 478.261719 471.464844 481.488281 477.925781 C 484.714844 484.4375 482.101562 492.28125 475.648438 495.511719 C 474.417969 496.125 446.132812 510.019531 404.167969 510.019531 L 233.640625 510.019531 C 211.914062 510.019531 194.285156 527.65625 194.285156 549.394531 C 194.285156 570.363281 212.683594 588.769531 233.640625 588.769531 L 387.921875 588.769531 C 394.941406 588.769531 401.808594 590.308594 408.164062 592.972656 C 409.035156 593.28125 409.804688 593.640625 410.570312 594.101562 " fill-opacity="1" fill-rule="nonzero"/><path fill="#9d4489" d="M 37.851562 653.421875 L 103.285156 636.960938 L 54.347656 587.949219 Z M 37.851562 653.421875 " fill-opacity="1" fill-rule="nonzero"/><path fill="#9d4489" d="M 175.582031 578.824219 C 170.921875 569.851562 168.050781 559.957031 168.050781 549.394531 C 168.050781 513.199219 197.464844 483.769531 233.640625 483.769531 L 270.582031 483.769531 L 480.464844 273.71875 L 417.335938 210.503906 L 65.726562 562.210938 L 128.957031 625.476562 L 175.582031 578.824219 " fill-opacity="1" fill-rule="nonzero"/><path fill="#9d4489" d="M 267.613281 252.902344 L 95.699219 449.625 C 81.046875 466.335938 76.125 488.792969 81.351562 509.457031 L 364.761719 225.933594 C 330.789062 215.066406 292.15625 225.011719 267.613281 252.902344 " fill-opacity="1" fill-rule="nonzero"/><g clip-path="url(#b52ba632f8)"><path fill="#9d4489" d="M 233.640625 621.582031 C 233.640625 639.679688 248.34375 654.394531 266.433594 654.394531 C 284.519531 654.394531 299.226562 639.679688 299.226562 621.582031 L 299.226562 615.019531 L 233.640625 615.019531 L 233.640625 621.582031 " fill-opacity="1" fill-rule="nonzero"/></g><g clip-path="url(#d1f3f75a7f)"><path fill="#9d4489" d="M 478.976562 157.59375 C 477.285156 155.902344 475.492188 155.644531 474.570312 155.644531 C 473.648438 155.644531 471.90625 155.902344 470.367188 157.4375 L 435.832031 191.996094 L 499.011719 255.210938 L 533.394531 220.808594 C 534.675781 219.527344 535.339844 217.988281 535.339844 216.347656 C 535.339844 215.269531 535.035156 213.628906 533.546875 212.195312 L 478.976562 157.59375 " fill-opacity="1" fill-rule="nonzero"/></g><g clip-path="url(#2912fc7e78)"><path fill="#9d4489" d="M 325.460938 615.019531 L 325.460938 621.582031 C 325.460938 639.679688 340.167969 654.394531 358.253906 654.394531 C 376.34375 654.394531 391.050781 639.679688 391.050781 621.582031 L 391.050781 615.277344 C 390.023438 615.171875 388.949219 615.019531 387.921875 615.019531 L 325.460938 615.019531 " fill-opacity="1" fill-rule="nonzero"/></g></svg>