<svg xmlns="http://www.w3.org/2000/svg" xmlns:xlink="http://www.w3.org/1999/xlink" width="1080" zoomAndPan="magnify" viewBox="0 0 810 809.999993" height="1080" preserveAspectRatio="xMidYMid meet" version="1.0"><defs><clipPath id="9ccf70f4d5"><path d="M 134.828125 29.449219 L 675.128906 29.449219 L 675.128906 780.199219 L 134.828125 780.199219 Z M 134.828125 29.449219 " clip-rule="nonzero"/></clipPath></defs><g clip-path="url(#9ccf70f4d5)"><path fill="#9d4489" d="M 674.992188 411.566406 C 674.992188 518.300781 675.601562 625.042969 674.28125 731.765625 C 674.101562 746.621094 668.585938 766.429688 658.175781 775 C 641.617188 788.617188 625.734375 772.441406 611.980469 761.449219 C 551.089844 712.792969 489.679688 664.75 429.765625 614.90625 C 413.21875 601.148438 403.179688 599.605469 385.636719 613.945312 C 322.410156 665.605469 257.976562 715.847656 192.71875 764.910156 C 181.886719 773.050781 162.242188 778.664062 151.089844 774.257812 C 142.195312 770.75 135.597656 750.210938 135.539062 737.203125 C 134.617188 520.023438 134.792969 302.835938 134.976562 85.652344 C 135.011719 45.761719 150.878906 29.714844 190.582031 29.644531 C 333.519531 29.378906 476.460938 29.398438 619.390625 29.625 C 658.925781 29.691406 674.644531 45.667969 674.746094 85.785156 C 675.003906 194.382812 674.835938 302.96875 674.835938 411.566406 C 674.886719 411.566406 674.941406 411.566406 674.992188 411.566406 " fill-opacity="1" fill-rule="nonzero"/></g></svg>