<svg xmlns="http://www.w3.org/2000/svg" xmlns:xlink="http://www.w3.org/1999/xlink" width="1080" zoomAndPan="magnify" viewBox="0 0 810 809.999993" height="1080" preserveAspectRatio="xMidYMid meet" version="1.0"><defs><clipPath id="f876cbe983"><path d="M 89 72.726562 L 721 72.726562 L 721 343 L 89 343 Z M 89 72.726562 " clip-rule="nonzero"/></clipPath><clipPath id="20b655da5d"><path d="M 43 278 L 767 278 L 767 737.226562 L 43 737.226562 Z M 43 278 " clip-rule="nonzero"/></clipPath></defs><g clip-path="url(#f876cbe983)"><path fill="#9d4489" d="M 168.140625 310.847656 C 211.792969 310.847656 246.714844 275.941406 246.714844 232.304688 C 246.714844 231.058594 246.714844 231.058594 246.714844 229.8125 L 345.246094 199.890625 C 360.210938 217.34375 381.414062 228.566406 405.113281 228.566406 C 426.3125 228.566406 445.023438 219.835938 458.742188 207.371094 L 564.753906 253.5 C 564.753906 257.238281 563.507812 259.734375 563.507812 263.472656 C 563.507812 307.109375 598.429688 342.015625 642.082031 342.015625 C 685.734375 342.015625 720.65625 307.109375 720.65625 263.472656 C 720.65625 219.835938 685.734375 184.929688 642.082031 184.929688 C 619.632812 184.929688 600.921875 193.65625 585.957031 208.617188 L 482.4375 163.734375 C 483.683594 159.996094 483.683594 155.007812 483.683594 151.269531 C 483.683594 107.632812 448.761719 72.726562 405.113281 72.726562 C 361.460938 72.726562 326.539062 107.632812 326.539062 151.269531 C 326.539062 152.515625 326.539062 153.761719 326.539062 155.007812 L 228.007812 184.929688 C 214.289062 166.230469 193.085938 155.007812 168.140625 155.007812 C 124.488281 155.007812 89.566406 189.917969 89.566406 233.550781 C 89.566406 277.1875 125.738281 310.847656 168.140625 310.847656 Z M 642.082031 233.550781 C 658.292969 233.550781 670.765625 246.019531 670.765625 262.226562 C 670.765625 278.433594 658.292969 290.902344 642.082031 290.902344 C 625.867188 290.902344 613.394531 278.433594 613.394531 262.226562 C 613.394531 247.265625 625.867188 233.550781 642.082031 233.550781 Z M 405.113281 121.347656 C 421.324219 121.347656 433.796875 133.8125 433.796875 150.023438 C 433.796875 166.230469 421.324219 178.695312 405.113281 178.695312 C 388.898438 178.695312 376.425781 166.230469 376.425781 150.023438 C 376.425781 133.8125 388.898438 121.347656 405.113281 121.347656 Z M 168.140625 204.878906 C 184.355469 204.878906 196.828125 217.34375 196.828125 233.550781 C 196.828125 249.757812 184.355469 262.226562 168.140625 262.226562 C 151.929688 262.226562 139.457031 249.757812 139.457031 233.550781 C 139.457031 217.34375 153.175781 204.878906 168.140625 204.878906 Z M 168.140625 204.878906 " fill-opacity="1" fill-rule="nonzero"/></g><g clip-path="url(#20b655da5d)"><path fill="#9d4489" d="M 741.855469 687.355469 L 731.878906 687.355469 L 731.878906 454.21875 C 731.878906 419.3125 703.195312 390.636719 668.273438 390.636719 L 614.640625 390.636719 C 579.71875 390.636719 552.28125 419.3125 552.28125 454.21875 L 552.28125 687.355469 L 496.15625 687.355469 L 496.15625 342.015625 C 496.15625 307.109375 467.472656 279.679688 432.550781 278.433594 L 378.921875 278.433594 C 344 278.433594 316.558594 307.109375 316.558594 342.015625 L 316.558594 687.355469 L 260.433594 687.355469 L 260.433594 424.300781 C 260.433594 389.390625 231.75 360.714844 196.828125 360.714844 L 143.199219 360.714844 C 108.277344 360.714844 79.589844 389.390625 79.589844 424.300781 L 79.589844 687.355469 L 68.367188 687.355469 C 54.644531 687.355469 43.421875 698.578125 43.421875 712.289062 C 43.421875 726.003906 54.644531 737.226562 68.367188 737.226562 L 741.855469 737.226562 C 755.578125 737.226562 766.800781 726.003906 766.800781 712.289062 C 766.800781 698.578125 755.578125 687.355469 741.855469 687.355469 Z M 128.230469 687.355469 L 128.230469 424.300781 C 128.230469 416.820312 134.46875 410.585938 141.949219 410.585938 L 195.582031 410.585938 C 203.0625 410.585938 209.300781 416.820312 209.300781 424.300781 L 209.300781 687.355469 Z M 365.199219 687.355469 L 365.199219 342.015625 C 365.199219 334.535156 371.4375 328.300781 378.921875 328.300781 L 432.550781 328.300781 C 440.03125 328.300781 446.269531 334.535156 446.269531 342.015625 L 446.269531 687.355469 Z M 602.171875 687.355469 L 602.171875 454.21875 C 602.171875 446.742188 608.40625 440.507812 614.640625 440.507812 L 668.273438 440.507812 C 675.753906 440.507812 681.992188 446.742188 681.992188 454.21875 L 681.992188 687.355469 Z M 602.171875 687.355469 " fill-opacity="1" fill-rule="nonzero"/></g></svg>